#!OML:ASF E:\Mandelcareful walks\Project 1\Capture day 1\Session 1\Subject1.ASF
:FULLY-SPECIFIED
:DEGREES
1218
root -16.221 15.2171 -9.90687 -158.753 96.6117 -168.59
lowerback 37.2284 -2.15 -0.251359
upperback 7.21206 -1.37054 3.93184
thorax -10.3462 -0.281234 4.84903
lowerneck -19.848 -15.9794 -17.8891
upperneck 16.7353 -22.2656 22.0792
head 13.852 -8.98963 6.75117
rclavicle -7.95139e-015 4.8901e-014
rhumerus -15.6726 1.14037 -79.9914
rradius 63.1855
rwrist -23.4202
rhand -19.7933 -25.6314
rfingers 7.12502
rthumb 6.53932 -55.5105
lclavicle -7.95139e-015 4.8901e-014
lhumerus -19.1057 -23.6943 84.1993
lradius 63.2498
lwrist 23.6836
lhand -27.0164 -15.0105
lfingers 7.12502
lthumb -0.43596 14.9688
rfemur -52.4418 -12.5791 16.8062
rtibia 59.6386
rfoot -11.4856 -2.00377
rtoes 6.94701
lfemur -36.3327 27.0327 -30.969
ltibia 64.3352
lfoot -39.986 15.8564
ltoes 3.94783
1219
root -16.2074 15.2156 -9.93609 -158.137 97.1667 -168.084
lowerback 37.5522 -2.08863 -0.436125
upperback 7.04111 -1.31483 4.27331
thorax -10.6561 -0.248815 5.30865
lowerneck -19.983 -16.2876 -17.9128
upperneck 16.8788 -22.6563 21.8526
head 13.9877 -9.16581 6.54756
rclavicle -5.00937e-014 -2.06736e-014
rhumerus -15.4635 0.668347 -79.684
rradius 63.128
rwrist -23.3866
rhand -20.0553 -26.2492
rfingers 7.12502
rthumb 6.28644 -56.1359
lclavicle -5.00937e-014 -2.06736e-014
lhumerus -18.9821 -23.3217 84.4719
lradius 63.6036
lwrist 23.8585
lhand -27.3934 -15.3531
lfingers 7.12502
lthumb -0.800004 14.6251
rfemur -52.697 -12.624 16.7218
rtibia 59.6786
rfoot -11.3136 -1.89187
rtoes 8.68518
lfemur -36.4691 27.3777 -31.427
ltibia 64.318
lfoot -40.1447 16.0286
ltoes 3.73575
1220
root -16.1937 15.2158 -9.9614 -157.414 97.758 -167.455
lowerback 37.2411 -2.26118 -0.185184
upperback 7.31154 -1.44957 4.16855
thorax -10.2325 -0.321805 5.09969
lowerneck -20.0899 -16.4953 -17.6645
upperneck 16.5909 -22.9976 21.9686
head 13.9581 -9.29161 6.43789
rclavicle 0 -4.05521e-014
rhumerus -14.7655 -0.239721 -79.9019
rradius 63.0341
rwrist -23.2885
rhand -20.0415 -26.5139
rfingers 7.12502
rthumb 6.29979 -56.4003
lclavicle 0 -4.05521e-014
lhumerus -18.1751 -23.0504 83.9527
lradius 63.9175
lwrist 24.1201
lhand -27.7329 -15.436
lfingers 7.12502
lthumb -1.12792 14.5407
rfemur -52.9198 -12.6658 16.6558
rtibia 59.6664
rfoot -11.2842 -1.70841
rtoes 9.76959
lfemur -36.5494 27.8432 -31.8926
ltibia 64.2552
lfoot -40.3382 15.9585
ltoes 3.96805
1221
root -16.1786 15.2112 -9.98333 -157.588 98.314 -167.717
lowerback 37.2029 -2.36623 -0.51459
upperback 7.22045 -1.6606 4.56193
thorax -10.2949 -0.41534 5.79074
lowerneck -19.1613 -16.2947 -18.1027
upperneck 16.2712 -22.6216 21.9151
head 13.6056 -9.24914 6.62076
rclavicle -1.03368e-014 -1.59028e-015
rhumerus -14.673 -0.086529 -79.6643
rradius 63.0822
rwrist -23.4278
rhand -19.8653 -26.2114
rfingers 7.12502
rthumb 6.4699 -56.0926
lclavicle -1.03368e-014 -1.59028e-015
lhumerus -18.5183 -21.6317 84.2591
lradius 64.4713
lwrist 24.0921
lhand -28.0153 -15.2884
lfingers 7.12502
lthumb -1.40072 14.6868
rfemur -53.1267 -12.6535 16.7512
rtibia 59.5656
rfoot -11.3191 -1.63188
rtoes 9.33875
lfemur -36.6499 28.3145 -32.1987
ltibia 64.1844
lfoot -40.2533 16.0845
ltoes 3.57496
1222
root -16.1622 15.2092 -10.0027 -157.96 98.8578 -168.146
lowerback 37.1836 -2.43341 0.0513761
upperback 7.41684 -1.54102 4.42356
thorax -10.089 -0.372507 5.2829
lowerneck -19.9653 -16.7351 -17.5404
upperneck 16.7011 -23.316 21.6038
head 13.9617 -9.46378 6.18732
rclavicle -4.77083e-015 -4.6118e-014
rhumerus -14.2143 -1.5494 -79.8582
rradius 63.2391
rwrist -23.5628
rhand -19.9934 -26.1048
rfingers 7.12502
rthumb 6.34623 -55.9897
lclavicle -4.77083e-015 -4.6118e-014
lhumerus -17.6113 -21.8799 83.6838
lradius 64.7944
lwrist 24.317
lhand -28.5204 -15.4682
lfingers 7.12502
lthumb -1.88849 14.5031
rfemur -53.2382 -12.5666 16.8335
rtibia 59.401
rfoot -11.4788 -1.59495
rtoes 8.98008
lfemur -36.7207 28.7158 -32.3991
ltibia 64.1363
lfoot -40.0061 16.3853
ltoes 2.56719
1223
root -16.1487 15.2212 -10.0219 -157.997 99.4008 -168.207
lowerback 37.3178 -2.50278 -0.0121309
upperback 7.34127 -1.62628 4.6072
thorax -10.2124 -0.410665 5.55707
lowerneck -19.5347 -16.5401 -17.4322
upperneck 16.6172 -22.9981 21.2604
head 13.6883 -9.3921 6.1443
rclavicle 4.29375e-014 2.22639e-014
rhumerus -14.0802 -1.86708 -79.8546
rradius 63.3663
rwrist -23.7948
rhand -19.8438 -25.927
rfingers 7.12502
rthumb 6.4906 -55.8075
lclavicle 4.29375e-014 2.22639e-014
lhumerus -17.5895 -21.1565 83.6416
lradius 65.11
lwrist 24.3432
lhand -28.9596 -15.8903
lfingers 7.12502
lthumb -2.31269 14.0769
rfemur -53.1805 -12.3974 16.7617
rtibia 59.1584
rfoot -11.5311 -1.49339
rtoes 9.51355
lfemur -36.6867 29.0521 -32.5711
ltibia 64.0892
lfoot -39.8433 16.3126
ltoes 2.26763
1224
root -16.1354 15.2198 -10.0382 -157.542 99.9551 -167.828
lowerback 37.4781 -2.5803 -0.187614
upperback 7.25532 -1.75743 4.8287
thorax -10.3494 -0.466796 5.95287
lowerneck -19.6035 -16.3186 -17.3581
upperneck 16.8965 -22.562 20.6571
head 13.5928 -9.24342 6.02482
rclavicle -2.46493e-014 -4.29375e-014
rhumerus -13.7605 -2.08559 -79.8228
rradius 63.384
rwrist -23.903
rhand -19.5668 -25.8679
rfingers 7.12502
rthumb 6.75806 -55.7401
lclavicle -2.46493e-014 -4.29375e-014
lhumerus -17.6853 -20.3612 83.646
lradius 65.5649
lwrist 24.4702
lhand -29.2543 -16.3358
lfingers 7.12502
lthumb -2.59731 13.6282
rfemur -53.2201 -12.2128 16.5657
rtibia 58.967
rfoot -11.3239 -1.29687
rtoes 10.6073
lfemur -36.7723 29.379 -32.8677
ltibia 64.1223
lfoot -39.6768 16.2525
ltoes 1.62501
1225
root -16.1212 15.2207 -10.0526 -157.011 100.482 -167.42
lowerback 37.7191 -2.61756 -0.455514
upperback 7.11415 -1.85998 5.13477
thorax -10.5769 -0.504932 6.48562
lowerneck -20.2404 -16.0933 -17.2142
upperneck 17.7031 -22.0288 19.6067
head 13.7163 -9.03317 5.73347
rclavicle -3.73715e-014 1.82882e-014
rhumerus -13.3871 -2.26963 -79.7136
rradius 63.3092
rwrist -23.903
rhand -19.6976 -26.2377
rfingers 7.12502
rthumb 6.63178 -56.1138
lclavicle -3.73715e-014 1.82882e-014
lhumerus -17.7216 -19.6198 83.7528
lradius 65.9456
lwrist 24.7752
lhand -29.5998 -16.8909
lfingers 7.12502
lthumb -2.93101 13.0687
rfemur -53.3542 -12.1847 16.4477
rtibia 58.7921
rfoot -11.2476 -1.03224
rtoes 10.8217
lfemur -36.8902 29.6717 -33.1962
ltibia 64.1354
lfoot -39.5411 16.1961
ltoes 0.966932
1226
root -16.1155 15.2202 -10.0612 -156.692 100.866 -167.209
lowerback 37.4608 -2.74155 0.003749
upperback 7.24642 -1.87725 4.92711
thorax -10.3449 -0.528352 6.00739
lowerneck -20.5517 -15.8432 -16.4184
upperneck 18.0603 -21.6971 18.8301
head 13.6129 -8.88331 5.39839
rclavicle -3.49861e-014 5.32743e-014
rhumerus -12.9561 -3.61085 -80.1718
rradius 63.2687
rwrist -23.7774
rhand -20.2252 -26.829
rfingers 7.12502
rthumb 6.12237 -56.7205
lclavicle -3.49861e-014 5.32743e-014
lhumerus -17.1636 -20.0683 83.082
lradius 66.2846
lwrist 25.3133
lhand -29.8859 -17.1948
lfingers 7.12502
lthumb -3.20725 12.7608
rfemur -53.5097 -12.2811 16.4835
rtibia 58.6783
rfoot -11.4849 -0.847463
rtoes 10.2829
lfemur -37.0387 29.9239 -33.4168
ltibia 64.189
lfoot -39.3224 16.078
ltoes 0.571757
1227
root -16.1076 15.2169 -10.0692 -156.431 101.263 -166.932
lowerback 38.2348 -2.72356 -0.00359233
upperback 7.00243 -1.79398 5.15245
thorax -10.9008 -0.476561 6.25708
lowerneck -21.9229 -15.4927 -15.5833
upperneck 19.3814 -20.9625 17.036
head 13.8644 -8.56399 4.74132
rclavicle 6.12257e-014 -1.27222e-014
rhumerus -12.8171 -4.00113 -79.9805
rradius 63.3576
rwrist -23.9432
rhand -20.9739 -27.5966
rfingers 7.12502
rthumb 5.39957 -57.5078
lclavicle 6.12257e-014 -1.27222e-014
lhumerus -17.173 -19.7746 83.188
lradius 66.6965
lwrist 25.4631
lhand -29.9355 -17.2593
lfingers 7.12502
lthumb -3.25513 12.6956
rfemur -53.4912 -12.2776 16.3965
rtibia 58.5762
rfoot -11.7259 -0.677037
rtoes 9.2335
lfemur -37.0791 30.2972 -33.6335
ltibia 64.2573
lfoot -39.1872 16.0516
ltoes 0.312969
1228
root -16.1 15.2153 -10.0752 -155.745 101.592 -166.264
lowerback 38.2436 -2.86654 -0.154128
upperback 6.96338 -2.01088 5.29631
thorax -10.9216 -0.5719 6.58762
lowerneck -22.2719 -14.6085 -14.8455
upperneck 20.2502 -19.4936 15.326
head 13.662 -8.02405 4.35313
rclavicle -4.21423e-014 3.65764e-014
rhumerus -12.651 -3.80606 -80.0253
rradius 63.4578
rwrist -24.1251
rhand -21.374 -28.1286
rfingers 7.12502
rthumb 5.01324 -58.0493
lclavicle -4.21423e-014 3.65764e-014
lhumerus -17.218 -18.971 83.123
lradius 67.039
lwrist 25.3524
lhand -29.8464 -17.3668
lfingers 7.12502
lthumb -3.16909 12.5893
rfemur -53.4906 -12.2488 16.1947
rtibia 58.4811
rfoot -11.9353 -0.561383
rtoes 8.03611
lfemur -37.1551 30.5971 -33.9131
ltibia 64.3335
lfoot -39.1958 15.8633
ltoes 0.767764
1229
root -16.0944 15.2147 -10.0762 -155.066 101.825 -165.71
lowerback 38.2088 -2.95449 0.221937
upperback 7.08388 -1.98416 5.18574
thorax -10.7841 -0.569704 6.24765
lowerneck -23.8034 -13.9109 -13.4936
upperneck 21.2426 -18.3531 13.4921
head 13.7611 -7.53517 3.67633
rclavicle 2.3059e-014 7.15625e-015
rhumerus -12.2139 -4.58918 -80.2309
rradius 63.5809
rwrist -24.147
rhand -21.4136 -28.4044
rfingers 7.12502
rthumb 4.97504 -58.326
lclavicle 2.3059e-014 7.15625e-015
lhumerus -16.3894 -19.1699 82.7212
lradius 67.1367
lwrist 25.3493
lhand -30.0161 -17.7361
lfingers 7.12502
lthumb -3.33304 12.2176
rfemur -53.6134 -12.2027 16.0785
rtibia 58.3919
rfoot -12.3859 -0.579721
rtoes 7.62163
lfemur -37.3483 30.7741 -34.166
ltibia 64.4177
lfoot -39.0831 15.6815
ltoes 1.11633
1230
root -16.0914 15.2138 -10.0725 -154.373 101.977 -165.135
lowerback 38.1838 -3.14473 0.0929502
upperback 7.07856 -2.24297 5.3662
thorax -10.7499 -0.685055 6.62067
lowerneck -24.85 -12.744 -12.639
upperneck 22.2112 -16.389 11.5624
head 13.7314 -6.7885 3.2439
rclavicle 3.4191e-014 1.59028e-014
rhumerus -12.0148 -4.06522 -80.204
rradius 63.7655
rwrist -24.3042
rhand -21.4523 -28.6077
rfingers 7.12502
rthumb 4.93758 -58.5301
lclavicle 3.4191e-014 1.59028e-014
lhumerus -16.2786 -18.3398 82.6996
lradius 67.3437
lwrist 25.2971
lhand -30.4291 -17.84
lfingers 7.12502
lthumb -3.73182 12.1071
rfemur -53.7436 -12.1622 15.9855
rtibia 58.3099
rfoot -12.8337 -0.663897
rtoes 7.17425
lfemur -37.516 30.8263 -34.3671
ltibia 64.4923
lfoot -38.8966 15.6644
ltoes 0.908435
1231
root -16.0919 15.2124 -10.0623 -153.501 102.105 -164.273
lowerback 38.118 -3.20856 0.579303
upperback 7.21812 -2.18491 4.99593
thorax -10.5901 -0.670497 5.92328
lowerneck -25.9359 -11.7219 -10.8546
upperneck 23.0281 -14.9973 9.67207
head 13.714 -6.22099 2.52905
rclavicle -3.65764e-014 4.77083e-015
rhumerus -11.8553 -5.06104 -80.5921
rradius 63.91
rwrist -24.3188
rhand -21.318 -28.123
rfingers 7.12502
rthumb 5.06733 -58.0424
lclavicle -3.65764e-014 4.77083e-015
lhumerus -15.6026 -19.0327 82.0424
lradius 67.5988
lwrist 25.4299
lhand -30.6507 -17.8302
lfingers 7.12502
lthumb -3.94584 12.113
rfemur -53.7319 -12.0888 15.7863
rtibia 58.2398
rfoot -12.9807 -0.733873
rtoes 6.53464
lfemur -37.5278 30.8554 -34.5086
ltibia 64.5609
lfoot -38.7977 15.4919
ltoes 0.942918
